<svg id="kity_svg_11" xmlns="http://www.w3.org/2000/svg" xmlns:xlink="http://www.w3.org/1999/xlink" version="1.1" width="838" height="1146" style="background: rgba(255, 255, 255, 0) none repeat scroll 0% 0%; visibility: visible;" viewBox="0 0 838 1146"><defs id="kity_defs_12"><linearGradient id="kity_linearGradient_23" x1="0" y1="0" x2="0" y2="1"><stop id="kity_stop_24" offset="0" stop-color="rgb(67, 188, 0)"></stop><stop id="kity_stop_25" offset="1" stop-color="rgb(67, 188, 0)"></stop></linearGradient><marker id="kity_marker_0" orient="auto" markerWidth="13" markerHeight="13" refX="12" refY="6"><path id="kity_path_1" fill="#3982fc" stroke="none" d="M2,2 L4,6 L2,11 L12,6 Z"></path></marker><g id="symbol-nwse-resize" style="cursor: pointer;"><path id="kity_path_3" fill="white" stroke="#ccc" d="M16,6A10,10,0,1,1,-4,6A10,10,0,1,1,16,6"></path><path id="kity_path_4" fill="#fdaa28" stroke="none" d="M11.3 12.4l-3.8-.5c-.4 0-.7-.3-.8-.7-.1-.4 0-.8.2-1l.8-.8-4.2-4.2-.8.8c-.2.2-.4.3-.7.3-.5 0-.9-.4-1-.9L.5 1.6c0-.3.1-.6.2-.8.2-.2.5-.3.7-.3h.1l3.8.5c.4 0 .7.3.8.7.1.4 0 .8-.2 1l-.8.8 4.2 4.2.8-.8c.2-.2.4-.3.7-.3.5 0 .9.4 1 .9l.5 3.8c0 .3-.1.6-.2.8-.2.2-.5.3-.7.3h-.1"></path></g></defs><g id="kity_g_13"><g id="minder1" text-rendering="optimize-speed"><g id="minder_connect_group1" stroke-linecap="round"><path id="kity_path_39" fill="none" stroke="#bdc5c9" stroke-width="2" d="M106,574h105v-497H256"></path><path id="kity_path_41" fill="none" stroke="#bdc5c9" stroke-width="1" d="M317.5,76.5h20v-44H362.5"></path><path id="kity_path_43" fill="none" stroke="#bdc5c9" stroke-width="1" d="M317.5,76.5h20v0H362.5"></path><path id="kity_path_45" fill="none" stroke="#bdc5c9" stroke-width="1" d="M317.5,76.5h20v44H362.5"></path><path id="kity_path_47" fill="none" stroke="#bdc5c9" stroke-width="2" d="M106,574h105v-355H256"></path><path id="kity_path_49" fill="none" stroke="#bdc5c9" stroke-width="1" d="M333.5,218.5h20v-44H378.5"></path><path id="kity_path_51" fill="none" stroke="#bdc5c9" stroke-width="1" d="M333.5,218.5h20v0H378.5"></path><path id="kity_path_53" fill="none" stroke="#bdc5c9" stroke-width="1" d="M333.5,218.5h20v44H378.5"></path><path id="kity_path_55" fill="none" stroke="#bdc5c9" stroke-width="2" d="M106,574h105v-213H256"></path><path id="kity_path_57" fill="none" stroke="#bdc5c9" stroke-width="1" d="M333.5,360.5h20v-44H378.5"></path><path id="kity_path_59" fill="none" stroke="#bdc5c9" stroke-width="1" d="M333.5,360.5h20v0H378.5"></path><path id="kity_path_61" fill="none" stroke="#bdc5c9" stroke-width="1" d="M333.5,360.5h20v44H378.5"></path><path id="kity_path_63" fill="none" stroke="#bdc5c9" stroke-width="2" d="M106,574h105v-71H256"></path><path id="kity_path_65" fill="none" stroke="#bdc5c9" stroke-width="1" d="M333.5,502.5h20v-44H378.5"></path><path id="kity_path_67" fill="none" stroke="#bdc5c9" stroke-width="1" d="M333.5,502.5h20v0H378.5"></path><path id="kity_path_69" fill="none" stroke="#bdc5c9" stroke-width="1" d="M333.5,502.5h20v44H378.5"></path><path id="kity_path_71" fill="none" stroke="#bdc5c9" stroke-width="2" d="M106,574h105v71H256"></path><path id="kity_path_73" fill="none" stroke="#bdc5c9" stroke-width="1" d="M333.5,644.5h20v-44H378.5"></path><path id="kity_path_75" fill="none" stroke="#bdc5c9" stroke-width="1" d="M333.5,644.5h20v0H378.5"></path><path id="kity_path_77" fill="none" stroke="#bdc5c9" stroke-width="1" d="M333.5,644.5h20v44H378.5"></path><path id="kity_path_79" fill="none" stroke="#bdc5c9" stroke-width="2" d="M106,574h105v213H256"></path><path id="kity_path_81" fill="none" stroke="#bdc5c9" stroke-width="1" d="M333.5,786.5h20v-44H378.5"></path><path id="kity_path_83" fill="none" stroke="#bdc5c9" stroke-width="1" d="M333.5,786.5h20v0H378.5"></path><path id="kity_path_85" fill="none" stroke="#bdc5c9" stroke-width="1" d="M333.5,786.5h20v44H378.5"></path><path id="kity_path_87" fill="none" stroke="#bdc5c9" stroke-width="2" d="M106,574h105v355H256"></path><path id="kity_path_89" fill="none" stroke="#bdc5c9" stroke-width="1" d="M333.5,928.5h20v-44H378.5"></path><path id="kity_path_91" fill="none" stroke="#bdc5c9" stroke-width="1" d="M333.5,928.5h20v0H378.5"></path><path id="kity_path_93" fill="none" stroke="#bdc5c9" stroke-width="1" d="M333.5,928.5h20v44H378.5"></path><path id="kity_path_95" fill="none" stroke="#bdc5c9" stroke-width="2" d="M106,574h105v497H256"></path><path id="kity_path_97" fill="none" stroke="#bdc5c9" stroke-width="1" d="M333.5,1070.5h20v-44H378.5"></path><path id="kity_path_99" fill="none" stroke="#bdc5c9" stroke-width="1" d="M333.5,1070.5h20v0H378.5"></path><path id="kity_path_101" fill="none" stroke="#bdc5c9" stroke-width="1" d="M333.5,1070.5h20v44H378.5"></path></g><g id="minder_generalize_group1"></g><g id="minder_rel_line_group1"></g><g id="minder_node1"><path id="node_outline1" fill="#1cabfc" stroke="transparent" d="M25.5,548.5h160a5,5,0,0,1,5,5v40a5,5,0,0,1,-5,5h-160a5,5,0,0,1,-5,-5v-40a5,5,0,0,1,5,-5z" stroke-width="0"></path><g id="node_text1" fill="#fff"><text id="kity_text_30" text-rendering="inherit" font-size="20" dy="1em" y="560.2999877929688" x="45.5">汉族传统节日 </text></g></g><g id="kity_g_17" display="none"><path id="kity_path_18" fill="none" stroke="none" d="M45.5,573.5h0v0h0z"></path></g><g id="kity_g_19"><path id="kity_path_20" fill="none" stroke="none" d="M45.5,573.5h0v0h0z"></path><path id="kity_path_21" fill="none" stroke="none"></path></g><g id="minder_node2"><g id="node_expander4" style="cursor: pointer;"><path id="kity_path_208" fill="white" stroke="gray" d="M254.5,76.5A6,6,0,1,1,242.5,76.5A6,6,0,1,1,254.5,76.5"></path><path id="kity_path_209" fill="none" stroke="gray" d="M244,76.5L253,76.5"></path></g><path id="node_outline5" fill="#fff" stroke="#ccc" d="M260.5,60.5h52a5,5,0,0,1,5,5v22a5,5,0,0,1,-5,5h-52a5,5,0,0,1,-5,-5v-22a5,5,0,0,1,5,-5z" stroke-width="1"></path><g id="node_text5" fill="#333"><text id="kity_text_109" text-rendering="inherit" font-size="16" dy="1em" y="65.94000244140625" x="270.5">春节</text></g></g><g id="minder_node3"><g id="node_expander1" style="cursor: pointer;" display="none"><path id="kity_path_199" fill="white" stroke="gray" d="M362.5,32.5A6,6,0,1,1,350.5,32.5A6,6,0,1,1,362.5,32.5"></path><path id="kity_path_200" fill="none" stroke="gray"></path></g><path id="node_outline2" fill="none" stroke="none" d="M367.5,20.5h206a5,5,0,0,1,5,5v14a5,5,0,0,1,-5,5h-206a5,5,0,0,1,-5,-5v-14a5,5,0,0,1,5,-5z" stroke-width="0"></path><g id="node_text2" fill="#333"><text id="kity_text_103" text-rendering="inherit" font-size="14" dy="1em" y="23.260009765625" x="372.5">正月初一（古称元旦、元日等）</text></g></g><g id="minder_node4"><g id="node_expander2" style="cursor: pointer;" display="none"><path id="kity_path_202" fill="white" stroke="gray" d="M362.5,76.5A6,6,0,1,1,350.5,76.5A6,6,0,1,1,362.5,76.5"></path><path id="kity_path_203" fill="none" stroke="gray"></path></g><path id="node_outline3" fill="none" stroke="none" d="M367.5,64.5h388a5,5,0,0,1,5,5v14a5,5,0,0,1,-5,5h-388a5,5,0,0,1,-5,-5v-14a5,5,0,0,1,5,-5z" stroke-width="0"></path><g id="node_text3" fill="#333"><text id="kity_text_105" text-rendering="inherit" font-size="14" dy="1em" y="67.260009765625" x="372.5">主要习俗：祭灶、扫尘、贴春联、除夕守岁、拜年、给压岁钱</text></g></g><g id="minder_node5"><g id="node_expander3" style="cursor: pointer;" display="none"><path id="kity_path_205" fill="white" stroke="gray" d="M362.5,120.5A6,6,0,1,1,350.5,120.5A6,6,0,1,1,362.5,120.5"></path><path id="kity_path_206" fill="none" stroke="gray"></path></g><path id="node_outline4" fill="none" stroke="none" d="M367.5,108.5h164a5,5,0,0,1,5,5v14a5,5,0,0,1,-5,5h-164a5,5,0,0,1,-5,-5v-14a5,5,0,0,1,5,-5z" stroke-width="0"></path><g id="node_text4" fill="#333"><text id="kity_text_107" text-rendering="inherit" font-size="14" dy="1em" y="111.260009765625" x="372.5">相关诗词（桃符、爆竹）</text></g></g><g id="minder_node6"><g id="node_expander8" style="cursor: pointer;"><path id="kity_path_220" fill="white" stroke="gray" d="M254.5,218.5A6,6,0,1,1,242.5,218.5A6,6,0,1,1,254.5,218.5"></path><path id="kity_path_221" fill="none" stroke="gray" d="M244,218.5L253,218.5"></path></g><path id="node_outline9" fill="#fff" stroke="#ccc" d="M260.5,202.5h68a5,5,0,0,1,5,5v22a5,5,0,0,1,-5,5h-68a5,5,0,0,1,-5,-5v-22a5,5,0,0,1,5,-5z" stroke-width="1"></path><g id="node_text9" fill="#333"><text id="kity_text_117" text-rendering="inherit" font-size="16" dy="1em" y="207.94000244140625" x="270.5">元宵节</text></g></g><g id="minder_node7"><g id="node_expander5" style="cursor: pointer;" display="none"><path id="kity_path_211" fill="white" stroke="gray" d="M378.5,174.5A6,6,0,1,1,366.5,174.5A6,6,0,1,1,378.5,174.5"></path><path id="kity_path_212" fill="none" stroke="gray"></path></g><path id="node_outline6" fill="none" stroke="none" d="M383.5,162.5h220a5,5,0,0,1,5,5v14a5,5,0,0,1,-5,5h-220a5,5,0,0,1,-5,-5v-14a5,5,0,0,1,5,-5z" stroke-width="0"></path><g id="node_text6" fill="#333"><text id="kity_text_111" text-rendering="inherit" font-size="14" dy="1em" y="165.260009765625" x="388.5">正月十五（古称上元节、元夕等）</text></g></g><g id="minder_node8"><g id="node_expander6" style="cursor: pointer;" display="none"><path id="kity_path_214" fill="white" stroke="gray" d="M378.5,218.5A6,6,0,1,1,366.5,218.5A6,6,0,1,1,378.5,218.5"></path><path id="kity_path_215" fill="none" stroke="gray"></path></g><path id="node_outline7" fill="none" stroke="none" d="M383.5,206.5h304a5,5,0,0,1,5,5v14a5,5,0,0,1,-5,5h-304a5,5,0,0,1,-5,-5v-14a5,5,0,0,1,5,-5z" stroke-width="0"></path><g id="node_text7" fill="#333"><text id="kity_text_113" text-rendering="inherit" font-size="14" dy="1em" y="209.260009765625" x="388.5">主要习俗：吃元宵、赏花灯、猜灯谜、迎紫姑等</text></g></g><g id="minder_node9"><g id="node_expander7" style="cursor: pointer;" display="none"><path id="kity_path_217" fill="white" stroke="gray" d="M378.5,262.5A6,6,0,1,1,366.5,262.5A6,6,0,1,1,378.5,262.5"></path><path id="kity_path_218" fill="none" stroke="gray"></path></g><path id="node_outline8" fill="none" stroke="none" d="M383.5,250.5h332a5,5,0,0,1,5,5v14a5,5,0,0,1,-5,5h-332a5,5,0,0,1,-5,-5v-14a5,5,0,0,1,5,-5z" stroke-width="0"></path><g id="node_text8" fill="#333"><text id="kity_text_115" text-rendering="inherit" font-size="14" dy="1em" y="253.260009765625" x="388.5">相关诗词（元夕、花灯、紫姑、火树银花、不禁夜）</text></g></g><g id="minder_node10"><g id="node_expander12" style="cursor: pointer;"><path id="kity_path_232" fill="white" stroke="gray" d="M254.5,360.5A6,6,0,1,1,242.5,360.5A6,6,0,1,1,254.5,360.5"></path><path id="kity_path_233" fill="none" stroke="gray" d="M244,360.5L253,360.5"></path></g><path id="node_outline13" fill="#fff" stroke="#ccc" d="M260.5,344.5h68a5,5,0,0,1,5,5v22a5,5,0,0,1,-5,5h-68a5,5,0,0,1,-5,-5v-22a5,5,0,0,1,5,-5z" stroke-width="1"></path><g id="node_text13" fill="#333"><text id="kity_text_125" text-rendering="inherit" font-size="16" dy="1em" y="349.94000244140625" x="270.5">寒食节</text></g></g><g id="minder_node11"><g id="node_expander9" style="cursor: pointer;" display="none"><path id="kity_path_223" fill="white" stroke="gray" d="M378.5,316.5A6,6,0,1,1,366.5,316.5A6,6,0,1,1,378.5,316.5"></path><path id="kity_path_224" fill="none" stroke="gray"></path></g><path id="node_outline10" fill="none" stroke="none" d="M383.5,304.5h94a5,5,0,0,1,5,5v14a5,5,0,0,1,-5,5h-94a5,5,0,0,1,-5,-5v-14a5,5,0,0,1,5,-5z" stroke-width="0"></path><g id="node_text10" fill="#333"><text id="kity_text_119" text-rendering="inherit" font-size="14" dy="1em" y="307.260009765625" x="388.5">清明节前两天</text></g></g><g id="minder_node12"><g id="node_expander10" style="cursor: pointer;" display="none"><path id="kity_path_226" fill="white" stroke="gray" d="M378.5,360.5A6,6,0,1,1,366.5,360.5A6,6,0,1,1,378.5,360.5"></path><path id="kity_path_227" fill="none" stroke="gray"></path></g><path id="node_outline11" fill="none" stroke="none" d="M383.5,348.5h178a5,5,0,0,1,5,5v14a5,5,0,0,1,-5,5h-178a5,5,0,0,1,-5,-5v-14a5,5,0,0,1,5,-5z" stroke-width="0"></path><g id="node_text11" fill="#333"><text id="kity_text_121" text-rendering="inherit" font-size="14" dy="1em" y="351.260009765625" x="388.5">主要习俗：禁烟火、食冷食</text></g></g><g id="minder_node13"><g id="node_expander11" style="cursor: pointer;" display="none"><path id="kity_path_229" fill="white" stroke="gray" d="M378.5,404.5A6,6,0,1,1,366.5,404.5A6,6,0,1,1,378.5,404.5"></path><path id="kity_path_230" fill="none" stroke="gray"></path></g><path id="node_outline12" fill="none" stroke="none" d="M383.5,392.5h220a5,5,0,0,1,5,5v14a5,5,0,0,1,-5,5h-220a5,5,0,0,1,-5,-5v-14a5,5,0,0,1,5,-5z" stroke-width="0"></path><g id="node_text12" fill="#333"><text id="kity_text_123" text-rendering="inherit" font-size="14" dy="1em" y="395.260009765625" x="388.5">相关诗词：（寒食、冷食、禁烟）</text></g></g><g id="minder_node14"><g id="node_expander16" style="cursor: pointer;"><path id="kity_path_244" fill="white" stroke="gray" d="M254.5,502.5A6,6,0,1,1,242.5,502.5A6,6,0,1,1,254.5,502.5"></path><path id="kity_path_245" fill="none" stroke="gray" d="M244,502.5L253,502.5"></path></g><path id="node_outline17" fill="#fff" stroke="#ccc" d="M260.5,486.5h68a5,5,0,0,1,5,5v22a5,5,0,0,1,-5,5h-68a5,5,0,0,1,-5,-5v-22a5,5,0,0,1,5,-5z" stroke-width="1"></path><g id="node_text17" fill="#333"><text id="kity_text_133" text-rendering="inherit" font-size="16" dy="1em" y="491.94000244140625" x="270.5">清明节</text></g></g><g id="minder_node15"><g id="node_expander13" style="cursor: pointer;" display="none"><path id="kity_path_235" fill="white" stroke="gray" d="M378.5,458.5A6,6,0,1,1,366.5,458.5A6,6,0,1,1,378.5,458.5"></path><path id="kity_path_236" fill="none" stroke="gray"></path></g><path id="node_outline14" fill="none" stroke="none" d="M383.5,446.5h94a5,5,0,0,1,5,5v14a5,5,0,0,1,-5,5h-94a5,5,0,0,1,-5,-5v-14a5,5,0,0,1,5,-5z" stroke-width="0"></path><g id="node_text14" fill="#333"><text id="kity_text_127" text-rendering="inherit" font-size="14" dy="1em" y="449.260009765625" x="388.5">春分后十五日</text></g></g><g id="minder_node16"><g id="node_expander14" style="cursor: pointer;" display="none"><path id="kity_path_238" fill="white" stroke="gray" d="M378.5,502.5A6,6,0,1,1,366.5,502.5A6,6,0,1,1,378.5,502.5"></path><path id="kity_path_239" fill="none" stroke="gray"></path></g><path id="node_outline15" fill="none" stroke="none" d="M383.5,490.5h360a5,5,0,0,1,5,5v14a5,5,0,0,1,-5,5h-360a5,5,0,0,1,-5,-5v-14a5,5,0,0,1,5,-5z" stroke-width="0"></path><g id="node_text15" fill="#333"><text id="kity_text_129" text-rendering="inherit" font-size="14" dy="1em" y="493.260009765625" x="388.5">主要习俗：扫墓、戴柳、植树、踏青、荡秋千、放风筝等</text></g></g><g id="minder_node17"><g id="node_expander15" style="cursor: pointer;" display="none"><path id="kity_path_241" fill="white" stroke="gray" d="M378.5,546.5A6,6,0,1,1,366.5,546.5A6,6,0,1,1,378.5,546.5"></path><path id="kity_path_242" fill="none" stroke="gray"></path></g><path id="node_outline16" fill="none" stroke="none" d="M383.5,534.5h122a5,5,0,0,1,5,5v14a5,5,0,0,1,-5,5h-122a5,5,0,0,1,-5,-5v-14a5,5,0,0,1,5,-5z" stroke-width="0"></path><g id="node_text16" fill="#333"><text id="kity_text_131" text-rendering="inherit" font-size="14" dy="1em" y="537.260009765625" x="388.5">相关诗词（清明）</text></g></g><g id="minder_node18"><g id="node_expander20" style="cursor: pointer;"><path id="kity_path_256" fill="white" stroke="gray" d="M254.5,644.5A6,6,0,1,1,242.5,644.5A6,6,0,1,1,254.5,644.5"></path><path id="kity_path_257" fill="none" stroke="gray" d="M244,644.5L253,644.5"></path></g><path id="node_outline21" fill="#fff" stroke="#ccc" d="M260.5,628.5h68a5,5,0,0,1,5,5v22a5,5,0,0,1,-5,5h-68a5,5,0,0,1,-5,-5v-22a5,5,0,0,1,5,-5z" stroke-width="1"></path><g id="node_text21" fill="#333"><text id="kity_text_141" text-rendering="inherit" font-size="16" dy="1em" y="633.9400024414062" x="270.5">端午节</text></g></g><g id="minder_node19"><g id="node_expander17" style="cursor: pointer;" display="none"><path id="kity_path_247" fill="white" stroke="gray" d="M378.5,600.5A6,6,0,1,1,366.5,600.5A6,6,0,1,1,378.5,600.5"></path><path id="kity_path_248" fill="none" stroke="gray"></path></g><path id="node_outline18" fill="none" stroke="none" d="M383.5,588.5h66a5,5,0,0,1,5,5v14a5,5,0,0,1,-5,5h-66a5,5,0,0,1,-5,-5v-14a5,5,0,0,1,5,-5z" stroke-width="0"></path><g id="node_text18" fill="#333"><text id="kity_text_135" text-rendering="inherit" font-size="14" dy="1em" y="591.260009765625" x="388.5">五月初五</text></g></g><g id="minder_node20"><g id="node_expander18" style="cursor: pointer;" display="none"><path id="kity_path_250" fill="white" stroke="gray" d="M378.5,644.5A6,6,0,1,1,366.5,644.5A6,6,0,1,1,378.5,644.5"></path><path id="kity_path_251" fill="none" stroke="gray"></path></g><path id="node_outline19" fill="none" stroke="none" d="M383.5,632.5h430a5,5,0,0,1,5,5v14a5,5,0,0,1,-5,5h-430a5,5,0,0,1,-5,-5v-14a5,5,0,0,1,5,-5z" stroke-width="0"></path><g id="node_text19" fill="#333"><text id="kity_text_137" text-rendering="inherit" font-size="14" dy="1em" y="635.260009765625" x="388.5">主要习俗：吃粽子、赛龙舟、挂菖蒲、戴艾草、佩香囊、饮雄黄酒等</text></g></g><g id="minder_node21"><g id="node_expander19" style="cursor: pointer;" display="none"><path id="kity_path_253" fill="white" stroke="gray" d="M378.5,688.5A6,6,0,1,1,366.5,688.5A6,6,0,1,1,378.5,688.5"></path><path id="kity_path_254" fill="none" stroke="gray"></path></g><path id="node_outline20" fill="none" stroke="none" d="M383.5,676.5h164a5,5,0,0,1,5,5v14a5,5,0,0,1,-5,5h-164a5,5,0,0,1,-5,-5v-14a5,5,0,0,1,5,-5z" stroke-width="0"></path><g id="node_text20" fill="#333"><text id="kity_text_139" text-rendering="inherit" font-size="14" dy="1em" y="679.260009765625" x="388.5">相关诗词（粽包、艾束）</text></g></g><g id="minder_node22"><g id="node_expander24" style="cursor: pointer;"><path id="kity_path_268" fill="white" stroke="gray" d="M254.5,786.5A6,6,0,1,1,242.5,786.5A6,6,0,1,1,254.5,786.5"></path><path id="kity_path_269" fill="none" stroke="gray" d="M244,786.5L253,786.5"></path></g><path id="node_outline25" fill="#fff" stroke="#ccc" d="M260.5,770.5h68a5,5,0,0,1,5,5v22a5,5,0,0,1,-5,5h-68a5,5,0,0,1,-5,-5v-22a5,5,0,0,1,5,-5z" stroke-width="1"></path><g id="node_text25" fill="#333"><text id="kity_text_149" text-rendering="inherit" font-size="16" dy="1em" y="775.9400024414062" x="270.5">七夕节</text></g></g><g id="minder_node23"><g id="node_expander21" style="cursor: pointer;" display="none"><path id="kity_path_259" fill="white" stroke="gray" d="M378.5,742.5A6,6,0,1,1,366.5,742.5A6,6,0,1,1,378.5,742.5"></path><path id="kity_path_260" fill="none" stroke="gray"></path></g><path id="node_outline22" fill="none" stroke="none" d="M383.5,730.5h66a5,5,0,0,1,5,5v14a5,5,0,0,1,-5,5h-66a5,5,0,0,1,-5,-5v-14a5,5,0,0,1,5,-5z" stroke-width="0"></path><g id="node_text22" fill="#333"><text id="kity_text_143" text-rendering="inherit" font-size="14" dy="1em" y="733.260009765625" x="388.5">七月初七</text></g></g><g id="minder_node24"><g id="node_expander22" style="cursor: pointer;" display="none"><path id="kity_path_262" fill="white" stroke="gray" d="M378.5,786.5A6,6,0,1,1,366.5,786.5A6,6,0,1,1,378.5,786.5"></path><path id="kity_path_263" fill="none" stroke="gray"></path></g><path id="node_outline23" fill="none" stroke="none" d="M383.5,774.5h164a5,5,0,0,1,5,5v14a5,5,0,0,1,-5,5h-164a5,5,0,0,1,-5,-5v-14a5,5,0,0,1,5,-5z" stroke-width="0"></path><g id="node_text23" fill="#333"><text id="kity_text_145" text-rendering="inherit" font-size="14" dy="1em" y="777.260009765625" x="388.5">主要习俗：乞巧、拜魁星</text></g></g><g id="minder_node25"><g id="node_expander23" style="cursor: pointer;" display="none"><path id="kity_path_265" fill="white" stroke="gray" d="M378.5,830.5A6,6,0,1,1,366.5,830.5A6,6,0,1,1,378.5,830.5"></path><path id="kity_path_266" fill="none" stroke="gray"></path></g><path id="node_outline24" fill="none" stroke="none" d="M383.5,818.5h234a5,5,0,0,1,5,5v14a5,5,0,0,1,-5,5h-234a5,5,0,0,1,-5,-5v-14a5,5,0,0,1,5,-5z" stroke-width="0"></path><g id="node_text24" fill="#333"><text id="kity_text_147" text-rendering="inherit" font-size="14" dy="1em" y="821.260009765625" x="388.5">相关诗词（鹊桥、牛郎星、织女星）</text></g></g><g id="minder_node26"><g id="node_expander28" style="cursor: pointer;"><path id="kity_path_280" fill="white" stroke="gray" d="M254.5,928.5A6,6,0,1,1,242.5,928.5A6,6,0,1,1,254.5,928.5"></path><path id="kity_path_281" fill="none" stroke="gray" d="M244,928.5L253,928.5"></path></g><path id="node_outline29" fill="#fff" stroke="#ccc" d="M260.5,912.5h68a5,5,0,0,1,5,5v22a5,5,0,0,1,-5,5h-68a5,5,0,0,1,-5,-5v-22a5,5,0,0,1,5,-5z" stroke-width="1"></path><g id="node_text29" fill="#333"><text id="kity_text_157" text-rendering="inherit" font-size="16" dy="1em" y="917.9400024414062" x="270.5">中秋节</text></g></g><g id="minder_node27"><g id="node_expander25" style="cursor: pointer;" display="none"><path id="kity_path_271" fill="white" stroke="gray" d="M378.5,884.5A6,6,0,1,1,366.5,884.5A6,6,0,1,1,378.5,884.5"></path><path id="kity_path_272" fill="none" stroke="gray"></path></g><path id="node_outline26" fill="none" stroke="none" d="M383.5,872.5h66a5,5,0,0,1,5,5v14a5,5,0,0,1,-5,5h-66a5,5,0,0,1,-5,-5v-14a5,5,0,0,1,5,-5z" stroke-width="0"></path><g id="node_text26" fill="#333"><text id="kity_text_151" text-rendering="inherit" font-size="14" dy="1em" y="875.260009765625" x="388.5">八月十五</text></g></g><g id="minder_node28"><g id="node_expander26" style="cursor: pointer;" display="none"><path id="kity_path_274" fill="white" stroke="gray" d="M378.5,928.5A6,6,0,1,1,366.5,928.5A6,6,0,1,1,378.5,928.5"></path><path id="kity_path_275" fill="none" stroke="gray"></path></g><path id="node_outline27" fill="none" stroke="none" d="M383.5,916.5h164a5,5,0,0,1,5,5v14a5,5,0,0,1,-5,5h-164a5,5,0,0,1,-5,-5v-14a5,5,0,0,1,5,-5z" stroke-width="0"></path><g id="node_text27" fill="#333"><text id="kity_text_153" text-rendering="inherit" font-size="14" dy="1em" y="919.260009765625" x="388.5">相关习俗：拜月、吃月饼</text></g></g><g id="minder_node29"><g id="node_expander27" style="cursor: pointer;" display="none"><path id="kity_path_277" fill="white" stroke="gray" d="M378.5,972.5A6,6,0,1,1,366.5,972.5A6,6,0,1,1,378.5,972.5"></path><path id="kity_path_278" fill="none" stroke="gray"></path></g><path id="node_outline28" fill="none" stroke="none" d="M383.5,960.5h164a5,5,0,0,1,5,5v14a5,5,0,0,1,-5,5h-164a5,5,0,0,1,-5,-5v-14a5,5,0,0,1,5,-5z" stroke-width="0"></path><g id="node_text28" fill="#333"><text id="kity_text_155" text-rendering="inherit" font-size="14" dy="1em" y="963.260009765625" x="388.5">相关诗句（婵娟、素娥）</text></g></g><g id="minder_node30"><g id="node_expander32" style="cursor: pointer;"><path id="kity_path_292" fill="white" stroke="gray" d="M254.5,1070.5A6,6,0,1,1,242.5,1070.5A6,6,0,1,1,254.5,1070.5"></path><path id="kity_path_293" fill="none" stroke="gray" d="M244,1070.5L253,1070.5"></path></g><path id="node_outline33" fill="#fff" stroke="#ccc" d="M260.5,1054.5h68a5,5,0,0,1,5,5v22a5,5,0,0,1,-5,5h-68a5,5,0,0,1,-5,-5v-22a5,5,0,0,1,5,-5z" stroke-width="1"></path><g id="node_text33" fill="#333"><text id="kity_text_165" text-rendering="inherit" font-size="16" dy="1em" y="1059.9400024414062" x="270.5">重阳节</text></g></g><g id="minder_node31"><g id="node_expander29" style="cursor: pointer;" display="none"><path id="kity_path_283" fill="white" stroke="gray" d="M378.5,1026.5A6,6,0,1,1,366.5,1026.5A6,6,0,1,1,378.5,1026.5"></path><path id="kity_path_284" fill="none" stroke="gray"></path></g><path id="node_outline30" fill="none" stroke="none" d="M383.5,1014.5h66a5,5,0,0,1,5,5v14a5,5,0,0,1,-5,5h-66a5,5,0,0,1,-5,-5v-14a5,5,0,0,1,5,-5z" stroke-width="0"></path><g id="node_text30" fill="#333"><text id="kity_text_159" text-rendering="inherit" font-size="14" dy="1em" y="1017.260009765625" x="388.5">九月初九</text></g></g><g id="minder_node32"><g id="node_expander30" style="cursor: pointer;" display="none"><path id="kity_path_286" fill="white" stroke="gray" d="M378.5,1070.5A6,6,0,1,1,366.5,1070.5A6,6,0,1,1,378.5,1070.5"></path><path id="kity_path_287" fill="none" stroke="gray"></path></g><path id="node_outline31" fill="none" stroke="none" d="M383.5,1058.5h290a5,5,0,0,1,5,5v14a5,5,0,0,1,-5,5h-290a5,5,0,0,1,-5,-5v-14a5,5,0,0,1,5,-5z" stroke-width="0"></path><g id="node_text31" fill="#333"><text id="kity_text_161" text-rendering="inherit" font-size="14" dy="1em" y="1061.260009765625" x="388.5">主要习俗：登高、赏菊、饮菊花酒、佩茱萸等</text></g></g><g id="minder_node33"><g id="node_expander31" style="cursor: pointer;" display="none"><path id="kity_path_289" fill="white" stroke="gray" d="M378.5,1114.5A6,6,0,1,1,366.5,1114.5A6,6,0,1,1,378.5,1114.5"></path><path id="kity_path_290" fill="none" stroke="gray"></path></g><path id="node_outline32" fill="none" stroke="none" d="M383.5,1102.5h220a5,5,0,0,1,5,5v14a5,5,0,0,1,-5,5h-220a5,5,0,0,1,-5,-5v-14a5,5,0,0,1,5,-5z" stroke-width="0"></path><g id="node_text32" fill="#333"><text id="kity_text_163" text-rendering="inherit" font-size="14" dy="1em" y="1105.260009765625" x="388.5">相关诗词（茱萸、黄花酒、登高）</text></g></g></g></g></svg>