<svg id="kity_svg_6" xmlns="http://www.w3.org/2000/svg" xmlns:xlink="http://www.w3.org/1999/xlink" version="1.1" width="532" height="379" style="background: rgb(251, 251, 251); visibility: visible;" viewBox="0 0 532 379"><defs id="kity_defs_7"><linearGradient id="kity_linearGradient_17" x1="0" y1="0" x2="0" y2="1"><stop id="kity_stop_18" offset="0" stop-color="rgb(255, 255, 255)"></stop><stop id="kity_stop_19" offset="1" stop-color="rgb(204, 204, 204)"></stop></linearGradient><marker id="kity_marker_2" orient="auto" refX="6" refY="0" viewBox="-7 -7 14 14" markerWidth="7" markerHeight="7" markerUnits="userSpaceOnUse"><path id="kity_path_3" fill="rgb(115, 191, 118)" stroke="none" d="M6,0A6,6,0,1,1,-6,0A6,6,0,1,1,6,0"></path></marker></defs><g id="kity_g_8"><g id="minder1" text-rendering="optimize-speed"><g id="minder_connect_group1"><path id="kity_path_36" fill="none" stroke="rgb(115, 191, 118)" stroke-width="1" d="M255.50000611692667,181.5000044927001A37,139,0,0,1,292.50000611692667,42.5000044927001"></path><path id="kity_path_44" fill="none" stroke="rgb(115, 191, 118)" stroke-width="1" d="M255.50000611692667,181.5000044927001A37,79,0,0,1,292.50000611692667,102.5000044927001"></path><path id="kity_path_52" fill="none" stroke="rgb(115, 191, 118)" stroke-width="1" d="M255.50000611692667,181.5000044927001A37,6,0,0,1,292.50000611692667,175.5000044927001"></path><path id="kity_path_60" fill="none" stroke="rgb(115, 191, 118)" stroke-width="1" d="M255.50000611692667,181.5000044927001A37,67,0,0,0,292.50000611692667,248.5000044927001"></path><path id="kity_path_68" fill="none" stroke="rgb(115, 191, 118)" stroke-width="1" d="M255.50000611692667,181.5000044927001A37,140,0,0,0,292.50000611692667,321.5000044927001"></path><path id="kity_path_76" fill="none" stroke="rgb(115, 191, 118)" stroke-width="1" d="M255.50000611692667,181.5000044927001A37,98,0,0,0,218.50000611692667,83.5000044927001"></path><path id="kity_path_84" fill="none" stroke="rgb(115, 191, 118)" stroke-width="1" d="M255.50000611692667,181.5000044927001A37,38,0,0,0,218.50000611692667,143.5000044927001"></path><path id="kity_path_92" fill="none" stroke="rgb(115, 191, 118)" stroke-width="1" d="M255.50000611692667,181.5000044927001A37,35,0,0,1,218.50000611692667,216.5000044927001"></path><path id="kity_path_100" fill="none" stroke="rgb(115, 191, 118)" stroke-width="1" d="M255.50000611692667,181.5000044927001A37,99,0,0,1,218.50000611692667,280.5000044927001"></path><path id="kity_path_108" fill="none" stroke="rgb(115, 191, 118)" stroke-width="1" d="M363.50000611692667,42.5000044927001C366.50000611692667,42.5000044927001,366.50000611692667,41.5000044927001,369.50000611692667,41.5000044927001L449.50000611692667,41.5000044927001"></path><path id="kity_path_116" fill="none" stroke="rgb(115, 191, 118)" stroke-width="1" d="M363.50000611692667,42.5000044927001C366.50000611692667,42.5000044927001,366.50000611692667,67.5000044927001,369.50000611692667,67.5000044927001L450.50000611692667,67.5000044927001"></path><path id="kity_path_124" fill="none" stroke="rgb(115, 191, 118)" stroke-width="1" d="M363.50000611692667,102.5000044927001C366.50000611692667,102.5000044927001,366.50000611692667,101.5000044927001,369.50000611692667,101.5000044927001L425.50000611692667,101.5000044927001"></path><path id="kity_path_132" fill="none" stroke="rgb(115, 191, 118)" stroke-width="1" d="M363.50000611692667,102.5000044927001C366.50000611692667,102.5000044927001,366.50000611692667,127.5000044927001,369.50000611692667,127.5000044927001L426.50000611692667,127.5000044927001"></path><path id="kity_path_140" fill="none" stroke="rgb(115, 191, 118)" stroke-width="1" d="M363.50000611692667,175.5000044927001C366.50000611692667,175.5000044927001,366.50000611692667,161.5000044927001,369.50000611692667,161.5000044927001L425.50000611692667,161.5000044927001"></path><path id="kity_path_148" fill="none" stroke="rgb(115, 191, 118)" stroke-width="1" d="M363.50000611692667,175.5000044927001C366.50000611692667,175.5000044927001,366.50000611692667,187.5000044927001,369.50000611692667,187.5000044927001L473.50000611692667,187.5000044927001"></path><path id="kity_path_156" fill="none" stroke="rgb(115, 191, 118)" stroke-width="1" d="M363.50000611692667,175.5000044927001C366.50000611692667,175.5000044927001,366.50000611692667,213.5000044927001,369.50000611692667,213.5000044927001L473.50000611692667,213.5000044927001"></path><path id="kity_path_164" fill="none" stroke="rgb(115, 191, 118)" stroke-width="1" d="M363.50000611692667,248.5000044927001C366.50000611692667,248.5000044927001,366.50000611692667,247.5000044927001,369.50000611692667,247.5000044927001L486.50000611692667,247.5000044927001"></path><path id="kity_path_172" fill="none" stroke="rgb(115, 191, 118)" stroke-width="1" d="M363.50000611692667,248.5000044927001C366.50000611692667,248.5000044927001,366.50000611692667,273.5000044927001,369.50000611692667,273.5000044927001L414.50000611692667,273.5000044927001"></path><path id="kity_path_180" fill="none" stroke="rgb(115, 191, 118)" stroke-width="1" d="M377.50000611692667,321.5000044927001C380.50000611692667,321.5000044927001,380.50000611692667,307.5000044927001,383.50000611692667,307.5000044927001L464.50000611692667,307.5000044927001"></path><path id="kity_path_188" fill="none" stroke="rgb(115, 191, 118)" stroke-width="1" d="M377.50000611692667,321.5000044927001C380.50000611692667,321.5000044927001,380.50000611692667,333.5000044927001,383.50000611692667,333.5000044927001L500.50000611692667,333.5000044927001"></path><path id="kity_path_196" fill="none" stroke="rgb(115, 191, 118)" stroke-width="1" d="M377.50000611692667,321.5000044927001C380.50000611692667,321.5000044927001,380.50000611692667,359.5000044927001,383.50000611692667,359.5000044927001L512.5000061169267,359.5000044927001"></path><path id="kity_path_204" fill="none" stroke="rgb(115, 191, 118)" stroke-width="1" d="M119.50000611692667,83.5000044927001C116.50000611692667,83.5000044927001,116.50000611692667,108.5000044927001,113.50000611692667,108.5000044927001L20.50000611692667,108.5000044927001"></path><path id="kity_path_212" fill="none" stroke="rgb(115, 191, 118)" stroke-width="1" d="M119.50000611692667,83.5000044927001C116.50000611692667,83.5000044927001,116.50000611692667,82.5000044927001,113.50000611692667,82.5000044927001L80.50000611692667,82.5000044927001"></path><path id="kity_path_220" fill="none" stroke="rgb(115, 191, 118)" stroke-width="1" d="M147.50000611692667,143.5000044927001C144.50000611692667,143.5000044927001,144.50000611692667,142.5000044927001,141.50000611692667,142.5000044927001L85.50000611692667,142.5000044927001"></path><path id="kity_path_228" fill="none" stroke="rgb(115, 191, 118)" stroke-width="1" d="M147.50000611692667,143.5000044927001C144.50000611692667,143.5000044927001,144.50000611692667,168.5000044927001,141.50000611692667,168.5000044927001L25.50000611692667,168.5000044927001"></path><path id="kity_path_236" fill="none" stroke="rgb(115, 191, 118)" stroke-width="1" d="M133.50000611692667,216.5000044927001C130.50000611692667,216.5000044927001,130.50000611692667,202.5000044927001,127.50000611692667,202.5000044927001L70.50000611692667,202.5000044927001"></path><path id="kity_path_244" fill="none" stroke="rgb(115, 191, 118)" stroke-width="1" d="M133.50000611692667,216.5000044927001C130.50000611692667,216.5000044927001,130.50000611692667,228.5000044927001,127.50000611692667,228.5000044927001L46.50000611692667,228.5000044927001"></path><path id="kity_path_252" fill="none" stroke="rgb(115, 191, 118)" stroke-width="1" d="M133.50000611692667,216.5000044927001C130.50000611692667,216.5000044927001,130.50000611692667,254.5000044927001,127.50000611692667,254.5000044927001L47.50000611692667,254.5000044927001"></path><path id="kity_path_260" fill="none" stroke="rgb(115, 191, 118)" stroke-width="1" d="M133.50000611692667,280.5000044927001C130.50000611692667,280.5000044927001,130.50000611692667,292.5000044927001,127.50000611692667,292.5000044927001L23.50000611692667,292.5000044927001"></path></g><g id="minder_node1"><path id="node_outline1" fill="rgb(115, 191, 118)" stroke="rgb(115, 191, 118)" d="M239.50000611692667,107.5000044927001h32a5,5,0,0,1,5,5v138a5,5,0,0,1,-5,5h-32a5,5,0,0,1,-5,-5v-138a5,5,0,0,1,5,-5z" stroke-width="3"></path><g id="node_text1" fill="white"><text id="kity_text_22" text-rendering="inherit" font-size="16" dy=".8em" y="111.10000445693731" x="246.50000611692667">少</text><text id="kity_text_30" text-rendering="inherit" font-size="16" dy=".8em" y="135.1000044569373" x="246.50000611692667">数</text><text id="kity_text_31" text-rendering="inherit" font-size="16" dy=".8em" y="159.1000044569373" x="246.50000611692667">民</text><text id="kity_text_32" text-rendering="inherit" font-size="16" dy=".8em" y="183.1000044569373" x="246.50000611692667">族</text><text id="kity_text_33" text-rendering="inherit" font-size="16" dy=".8em" y="207.1000044569373" x="246.50000611692667">传</text><text id="kity_text_34" text-rendering="inherit" font-size="16" dy=".8em" y="231.1000044569373" x="246.50000611692667">统</text></g></g><g id="kity_g_14" display="none"><path id="kity_path_15" fill="rgba(0, 153, 5, 0.5)" stroke="none" d="M79.50000611692667,110.5000044927001h24v4h-24z"></path><path id="kity_path_16" fill="none" stroke="rgb(0, 128, 4)" d="M79.50000611692667,110.5000044927001L103.50000611692667,110.5000044927001" stroke-width="1"></path></g><g id="minder_node2"><g id="node_expander1" style="cursor: pointer;"><path id="kity_path_41" fill="white" stroke="gray" d="M293.5000067278743,42.500002421438694A6,6,0,1,1,281.5000067278743,42.500002421438694A6,6,0,1,1,293.5000067278743,42.500002421438694"></path><path id="kity_path_42" fill="none" stroke="gray" d="M283.0000067278743,42.500002421438694L292.0000067278743,42.500002421438694"></path></g><path id="node_outline2" fill="rgb(238, 246, 238)" stroke="rgb(115, 191, 118)" d="M297.50000713020563,29.500002421438694h63a3,3,0,0,1,3,3v20a3,3,0,0,1,-3,3h-63a3,3,0,0,1,-3,-3v-20a3,3,0,0,1,3,-3z" stroke-width="1"></path><g id="node_text2" fill="black"><text id="kity_text_38" text-rendering="inherit" font-size="14" dy=".8em" y="33.400002390146255" x="314.50000713020563">壮族</text></g></g><g id="minder_node3"><g id="node_expander2" style="cursor: pointer;"><path id="kity_path_49" fill="white" stroke="gray" d="M293.5000067278743,102.50000331550837A6,6,0,1,1,281.5000067278743,102.50000331550837A6,6,0,1,1,293.5000067278743,102.50000331550837"></path><path id="kity_path_50" fill="none" stroke="gray" d="M283.0000067278743,102.50000331550837L292.0000067278743,102.50000331550837"></path></g><path id="node_outline3" fill="rgb(238, 246, 238)" stroke="rgb(115, 191, 118)" d="M297.50000713020563,89.50000331550837h63a3,3,0,0,1,3,3v20a3,3,0,0,1,-3,3h-63a3,3,0,0,1,-3,-3v-20a3,3,0,0,1,3,-3z" stroke-width="1"></path><g id="node_text3" fill="black"><text id="kity_text_46" text-rendering="inherit" font-size="14" dy=".8em" y="93.40000328421593" x="314.50000713020563">傣族</text></g></g><g id="minder_node4"><g id="node_expander3" style="cursor: pointer;"><path id="kity_path_57" fill="white" stroke="gray" d="M293.5000067278743,175.50000440329313A6,6,0,1,1,281.5000067278743,175.50000440329313A6,6,0,1,1,293.5000067278743,175.50000440329313"></path><path id="kity_path_58" fill="none" stroke="gray" d="M283.0000067278743,175.50000440329313L292.0000067278743,175.50000440329313"></path></g><path id="node_outline4" fill="rgb(238, 246, 238)" stroke="rgb(115, 191, 118)" d="M297.50000713020563,162.50000440329313h63a3,3,0,0,1,3,3v20a3,3,0,0,1,-3,3h-63a3,3,0,0,1,-3,-3v-20a3,3,0,0,1,3,-3z" stroke-width="1"></path><g id="node_text4" fill="black"><text id="kity_text_54" text-rendering="inherit" font-size="14" dy=".8em" y="166.4000043720007" x="314.50000713020563">藏族</text></g></g><g id="minder_node5"><g id="node_expander4" style="cursor: pointer;"><path id="kity_path_65" fill="white" stroke="gray" d="M293.5000067278743,248.5000054910779A6,6,0,1,1,281.5000067278743,248.5000054910779A6,6,0,1,1,293.5000067278743,248.5000054910779"></path><path id="kity_path_66" fill="none" stroke="gray" d="M283.0000067278743,248.5000054910779L292.0000067278743,248.5000054910779"></path></g><path id="node_outline5" fill="rgb(238, 246, 238)" stroke="rgb(115, 191, 118)" d="M297.50000713020563,235.5000054910779h63a3,3,0,0,1,3,3v20a3,3,0,0,1,-3,3h-63a3,3,0,0,1,-3,-3v-20a3,3,0,0,1,3,-3z" stroke-width="1"></path><g id="node_text5" fill="black"><text id="kity_text_62" text-rendering="inherit" font-size="14" dy=".8em" y="239.40000545978546" x="314.50000713020563">回族</text></g></g><g id="minder_node6"><g id="node_expander5" style="cursor: pointer;"><path id="kity_path_73" fill="white" stroke="gray" d="M293.5000067278743,321.50000657886267A6,6,0,1,1,281.5000067278743,321.50000657886267A6,6,0,1,1,293.5000067278743,321.50000657886267"></path><path id="kity_path_74" fill="none" stroke="gray" d="M283.0000067278743,321.50000657886267L292.0000067278743,321.50000657886267"></path></g><path id="node_outline6" fill="rgb(238, 246, 238)" stroke="rgb(115, 191, 118)" d="M297.50000713020563,308.50000657886267h77a3,3,0,0,1,3,3v20a3,3,0,0,1,-3,3h-77a3,3,0,0,1,-3,-3v-20a3,3,0,0,1,3,-3z" stroke-width="1"></path><g id="node_text6" fill="black"><text id="kity_text_70" text-rendering="inherit" font-size="14" dy=".8em" y="312.40000654757023" x="314.50000713020563">蒙古族</text></g></g><g id="minder_node7"><g id="node_expander6" style="cursor: pointer;"><path id="kity_path_81" fill="white" stroke="gray" d="M229.50000577419996,83.5000030323863A6,6,0,1,1,217.50000577419996,83.5000030323863A6,6,0,1,1,229.50000577419996,83.5000030323863"></path><path id="kity_path_82" fill="none" stroke="gray" d="M219.00000577419996,83.5000030323863L228.00000577419996,83.5000030323863"></path></g><path id="node_outline7" fill="rgb(238, 246, 238)" stroke="rgb(115, 191, 118)" d="M122.50000452250242,70.5000030323863h91a3,3,0,0,1,3,3v20a3,3,0,0,1,-3,3h-91a3,3,0,0,1,-3,-3v-20a3,3,0,0,1,3,-3z" stroke-width="1"></path><g id="node_text7" fill="black"><text id="kity_text_78" text-rendering="inherit" font-size="14" dy=".8em" y="74.40000300109386" x="139.50000452250242">维吾尔族</text></g></g><g id="minder_node8"><g id="node_expander7" style="cursor: pointer;"><path id="kity_path_89" fill="white" stroke="gray" d="M229.50000577419996,143.50000392645597A6,6,0,1,1,217.50000577419996,143.50000392645597A6,6,0,1,1,229.50000577419996,143.50000392645597"></path><path id="kity_path_90" fill="none" stroke="gray" d="M219.00000577419996,143.50000392645597L228.00000577419996,143.50000392645597"></path></g><path id="node_outline8" fill="rgb(238, 246, 238)" stroke="rgb(115, 191, 118)" d="M150.50000493973494,130.50000392645597h63a3,3,0,0,1,3,3v20a3,3,0,0,1,-3,3h-63a3,3,0,0,1,-3,-3v-20a3,3,0,0,1,3,-3z" stroke-width="1"></path><g id="node_text8" fill="black"><text id="kity_text_86" text-rendering="inherit" font-size="14" dy=".8em" y="134.40000389516354" x="167.50000493973494">满族</text></g></g><g id="minder_node9"><g id="node_expander8" style="cursor: pointer;"><path id="kity_path_97" fill="white" stroke="gray" d="M229.50000577419996,216.50000501424074A6,6,0,1,1,217.50000577419996,216.50000501424074A6,6,0,1,1,229.50000577419996,216.50000501424074"></path><path id="kity_path_98" fill="none" stroke="gray" d="M219.00000577419996,216.50000501424074L228.00000577419996,216.50000501424074"></path></g><path id="node_outline9" fill="rgb(238, 246, 238)" stroke="rgb(115, 191, 118)" d="M136.50000473111868,203.50000501424074h77a3,3,0,0,1,3,3v20a3,3,0,0,1,-3,3h-77a3,3,0,0,1,-3,-3v-20a3,3,0,0,1,3,-3z" stroke-width="1"></path><g id="node_text9" fill="black"><text id="kity_text_94" text-rendering="inherit" font-size="14" dy=".8em" y="207.4000049829483" x="153.50000473111868">朝鲜族</text></g></g><g id="minder_node10"><g id="node_expander9" style="cursor: pointer;"><path id="kity_path_105" fill="white" stroke="gray" d="M229.50000577419996,280.50000596791506A6,6,0,1,1,217.50000577419996,280.50000596791506A6,6,0,1,1,229.50000577419996,280.50000596791506"></path><path id="kity_path_106" fill="none" stroke="gray" d="M219.00000577419996,280.50000596791506L228.00000577419996,280.50000596791506"></path></g><path id="node_outline10" fill="rgb(238, 246, 238)" stroke="rgb(115, 191, 118)" d="M136.50000473111868,267.50000596791506h77a3,3,0,0,1,3,3v20a3,3,0,0,1,-3,3h-77a3,3,0,0,1,-3,-3v-20a3,3,0,0,1,3,-3z" stroke-width="1"></path><g id="node_text10" fill="black"><text id="kity_text_102" text-rendering="inherit" font-size="14" dy=".8em" y="271.4000059366226" x="153.50000473111868">高山族</text></g></g><g id="minder_node11"><g id="node_expander10" style="cursor: pointer;" display="none"><path id="kity_path_113" fill="white" stroke="gray" d="M379.50000800937414,29.5000022277236A6,6,0,1,1,367.50000800937414,29.5000022277236A6,6,0,1,1,379.50000800937414,29.5000022277236"></path><path id="kity_path_114" fill="none" stroke="gray"></path></g><path id="node_outline11" fill="#fabf8f" stroke="none" d="M384.5000081732869,20.5000022277236h60a5,5,0,0,1,5,5v8a5,5,0,0,1,-5,5h-60a5,5,0,0,1,-5,-5v-8a5,5,0,0,1,5,-5z" stroke-width="3"></path><g id="node_text11" fill="black"><text id="kity_text_110" text-rendering="inherit" font-size="12" dy=".8em" y="21.70000220090151" x="384.5000081732869">三月三歌节</text></g></g><g id="minder_node12"><g id="node_expander11" style="cursor: pointer;" display="none"><path id="kity_path_121" fill="white" stroke="gray" d="M379.50000800937414,55.50000261515379A6,6,0,1,1,367.50000800937414,55.50000261515379A6,6,0,1,1,379.50000800937414,55.50000261515379"></path><path id="kity_path_122" fill="none" stroke="gray"></path></g><path id="node_outline12" fill="#92d050" stroke="none" d="M384.5000081732869,46.50000261515379h61a5,5,0,0,1,5,5v8a5,5,0,0,1,-5,5h-61a5,5,0,0,1,-5,-5v-8a5,5,0,0,1,5,-5z" stroke-width="3"></path><g id="node_text12" fill="black"><text id="kity_text_118" text-rendering="inherit" font-size="12" dy=".8em" y="47.7000025883317" x="384.5000081732869">五色糯米饭</text></g></g><g id="minder_node13"><g id="node_expander12" style="cursor: pointer;" display="none"><path id="kity_path_129" fill="white" stroke="gray" d="M379.50000800937414,89.50000312179327A6,6,0,1,1,367.50000800937414,89.50000312179327A6,6,0,1,1,379.50000800937414,89.50000312179327"></path><path id="kity_path_130" fill="none" stroke="gray"></path></g><path id="node_outline13" fill="#fabf8f" stroke="none" d="M384.5000081732869,80.50000312179327h36a5,5,0,0,1,5,5v8a5,5,0,0,1,-5,5h-36a5,5,0,0,1,-5,-5v-8a5,5,0,0,1,5,-5z" stroke-width="3"></path><g id="node_text13" fill="black"><text id="kity_text_126" text-rendering="inherit" font-size="12" dy=".8em" y="81.70000309497118" x="384.5000081732869">泼水节</text></g></g><g id="minder_node14"><g id="node_expander13" style="cursor: pointer;" display="none"><path id="kity_path_137" fill="white" stroke="gray" d="M379.50000800937414,115.50000350922346A6,6,0,1,1,367.50000800937414,115.50000350922346A6,6,0,1,1,379.50000800937414,115.50000350922346"></path><path id="kity_path_138" fill="none" stroke="gray"></path></g><path id="node_outline14" fill="#95b3d7" stroke="none" d="M384.5000081732869,106.50000350922346h37a5,5,0,0,1,5,5v8a5,5,0,0,1,-5,5h-37a5,5,0,0,1,-5,-5v-8a5,5,0,0,1,5,-5z" stroke-width="3"></path><g id="node_text14" fill="black"><text id="kity_text_134" text-rendering="inherit" font-size="12" dy=".8em" y="107.70000348240137" x="384.5000081732869">孔雀舞</text></g></g><g id="minder_node15"><g id="node_expander14" style="cursor: pointer;" display="none"><path id="kity_path_145" fill="white" stroke="gray" d="M379.50000800937414,149.50000401586294A6,6,0,1,1,367.50000800937414,149.50000401586294A6,6,0,1,1,379.50000800937414,149.50000401586294"></path><path id="kity_path_146" fill="none" stroke="gray"></path></g><path id="node_outline15" fill="#fabf8f" stroke="none" d="M384.5000081732869,140.50000401586294h36a5,5,0,0,1,5,5v8a5,5,0,0,1,-5,5h-36a5,5,0,0,1,-5,-5v-8a5,5,0,0,1,5,-5z" stroke-width="3"></path><g id="node_text15" fill="black"><text id="kity_text_142" text-rendering="inherit" font-size="12" dy=".8em" y="141.70000398904085" x="384.5000081732869">雪顿节</text></g></g><g id="minder_node16"><g id="node_expander15" style="cursor: pointer;" display="none"><path id="kity_path_153" fill="white" stroke="gray" d="M379.50000800937414,175.50000440329313A6,6,0,1,1,367.50000800937414,175.50000440329313A6,6,0,1,1,379.50000800937414,175.50000440329313"></path><path id="kity_path_154" fill="none" stroke="gray"></path></g><path id="node_outline16" fill="#92d050" stroke="none" d="M384.5000081732869,166.50000440329313h84a5,5,0,0,1,5,5v8a5,5,0,0,1,-5,5h-84a5,5,0,0,1,-5,-5v-8a5,5,0,0,1,5,-5z" stroke-width="3"></path><g id="node_text16" fill="black"><text id="kity_text_150" text-rendering="inherit" font-size="12" dy=".8em" y="167.70000437647104" x="384.5000081732869">青稞酒、酥油茶</text></g></g><g id="minder_node17"><g id="node_expander16" style="cursor: pointer;" display="none"><path id="kity_path_161" fill="white" stroke="gray" d="M379.50000800937414,201.50000479072332A6,6,0,1,1,367.50000800937414,201.50000479072332A6,6,0,1,1,379.50000800937414,201.50000479072332"></path><path id="kity_path_162" fill="none" stroke="gray"></path></g><path id="node_outline17" fill="#95b3d7" stroke="none" d="M384.5000081732869,192.50000479072332h84a5,5,0,0,1,5,5v8a5,5,0,0,1,-5,5h-84a5,5,0,0,1,-5,-5v-8a5,5,0,0,1,5,-5z" stroke-width="3"></path><g id="node_text17" fill="black"><text id="kity_text_158" text-rendering="inherit" font-size="12" dy=".8em" y="193.70000476390123" x="384.5000081732869">格萨尔王、唐卡</text></g></g><g id="minder_node18"><g id="node_expander17" style="cursor: pointer;" display="none"><path id="kity_path_169" fill="white" stroke="gray" d="M379.50000800937414,235.5000052973628A6,6,0,1,1,367.50000800937414,235.5000052973628A6,6,0,1,1,379.50000800937414,235.5000052973628"></path><path id="kity_path_170" fill="none" stroke="gray"></path></g><path id="node_outline18" fill="#fabf8f" stroke="none" d="M384.5000081732869,226.5000052973628h97a5,5,0,0,1,5,5v8a5,5,0,0,1,-5,5h-97a5,5,0,0,1,-5,-5v-8a5,5,0,0,1,5,-5z" stroke-width="3"></path><g id="node_text18" fill="black"><text id="kity_text_166" text-rendering="inherit" font-size="12" dy=".8em" y="227.70000527054071" x="384.5000081732869">开斋节、古尔邦节</text></g></g><g id="minder_node19"><g id="node_expander18" style="cursor: pointer;" display="none"><path id="kity_path_177" fill="white" stroke="gray" d="M379.50000800937414,261.500005684793A6,6,0,1,1,367.50000800937414,261.500005684793A6,6,0,1,1,379.50000800937414,261.500005684793"></path><path id="kity_path_178" fill="none" stroke="gray"></path></g><path id="node_outline19" fill="#92d050" stroke="none" d="M384.5000081732869,252.500005684793h25a5,5,0,0,1,5,5v8a5,5,0,0,1,-5,5h-25a5,5,0,0,1,-5,-5v-8a5,5,0,0,1,5,-5z" stroke-width="3"></path><g id="node_text19" fill="black"><text id="kity_text_174" text-rendering="inherit" font-size="12" dy=".8em" y="253.7000056579709" x="384.5000081732869">馓子</text></g></g><g id="minder_node20"><g id="node_expander19" style="cursor: pointer;" display="none"><path id="kity_path_185" fill="white" stroke="gray" d="M393.5000082179904,295.5000061914325A6,6,0,1,1,381.5000082179904,295.5000061914325A6,6,0,1,1,393.5000082179904,295.5000061914325"></path><path id="kity_path_186" fill="none" stroke="gray"></path></g><path id="node_outline20" fill="#fabf8f" stroke="none" d="M398.50000838190317,286.5000061914325h61a5,5,0,0,1,5,5v8a5,5,0,0,1,-5,5h-61a5,5,0,0,1,-5,-5v-8a5,5,0,0,1,5,-5z" stroke-width="3"></path><g id="node_text20" fill="black"><text id="kity_text_182" text-rendering="inherit" font-size="12" dy=".8em" y="287.7000061646104" x="398.50000838190317">那达慕大会</text></g></g><g id="minder_node21"><g id="node_expander20" style="cursor: pointer;" display="none"><path id="kity_path_193" fill="white" stroke="gray" d="M393.5000082179904,321.50000657886267A6,6,0,1,1,381.5000082179904,321.50000657886267A6,6,0,1,1,393.5000082179904,321.50000657886267"></path><path id="kity_path_194" fill="none" stroke="gray"></path></g><path id="node_outline21" fill="#92d050" stroke="none" d="M398.50000838190317,312.50000657886267h97a5,5,0,0,1,5,5v8a5,5,0,0,1,-5,5h-97a5,5,0,0,1,-5,-5v-8a5,5,0,0,1,5,-5z" stroke-width="3"></path><g id="node_text21" fill="black"><text id="kity_text_190" text-rendering="inherit" font-size="12" dy=".8em" y="313.7000065520406" x="398.50000838190317">马奶酒、手抓羊肉</text></g></g><g id="minder_node22"><g id="node_expander21" style="cursor: pointer;" display="none"><path id="kity_path_201" fill="white" stroke="gray" d="M393.5000082179904,347.50000696629286A6,6,0,1,1,381.5000082179904,347.50000696629286A6,6,0,1,1,393.5000082179904,347.50000696629286"></path><path id="kity_path_202" fill="none" stroke="gray"></path></g><path id="node_outline22" fill="#95b3d7" stroke="none" d="M398.50000838190317,338.50000696629286h109a5,5,0,0,1,5,5v8a5,5,0,0,1,-5,5h-109a5,5,0,0,1,-5,-5v-8a5,5,0,0,1,5,-5z" stroke-width="3"></path><g id="node_text22" fill="black"><text id="kity_text_198" text-rendering="inherit" font-size="12" dy=".8em" y="339.70000693947077" x="398.50000838190317">蒙古长调、嘎达梅林</text></g></g><g id="minder_node23" opacity="1"><g id="node_expander22" style="cursor: pointer;" display="none"><path id="kity_path_209" fill="white" stroke="gray" d="M115.50000407546759,96.5000032261014A6,6,0,1,1,103.50000407546759,96.5000032261014A6,6,0,1,1,115.50000407546759,96.5000032261014"></path><path id="kity_path_210" fill="none" stroke="gray"></path></g><path id="node_outline23" fill="#95b3d7" stroke="none" d="M25.500002823770046,87.5000032261014h73a5,5,0,0,1,5,5v8a5,5,0,0,1,-5,5h-73a5,5,0,0,1,-5,-5v-8a5,5,0,0,1,5,-5z" stroke-width="3"></path><g id="node_text23" fill="black"><text id="kity_text_206" text-rendering="inherit" font-size="12" dy=".8em" y="88.70000319927931" x="25.500002823770046">阿凡提的故事</text></g></g><g id="minder_node24" opacity="1"><g id="node_expander23" style="cursor: pointer;" display="none"><path id="kity_path_217" fill="white" stroke="gray" d="M115.50000407546759,70.50000283867121A6,6,0,1,1,103.50000407546759,70.50000283867121A6,6,0,1,1,115.50000407546759,70.50000283867121"></path><path id="kity_path_218" fill="none" stroke="gray"></path></g><path id="node_outline24" fill="#92d050" stroke="none" d="M85.50000371783972,61.50000283867121h13a5,5,0,0,1,5,5v8a5,5,0,0,1,-5,5h-13a5,5,0,0,1,-5,-5v-8a5,5,0,0,1,5,-5z" stroke-width="3"></path><g id="node_text24" fill="black"><text id="kity_text_214" text-rendering="inherit" font-size="12" dy=".8em" y="62.70000281184912" x="85.50000371783972">馕</text></g></g><g id="minder_node25"><g id="node_expander24" style="cursor: pointer;" display="none"><path id="kity_path_225" fill="white" stroke="gray" d="M143.5000044927001,130.50000373274088A6,6,0,1,1,131.5000044927001,130.50000373274088A6,6,0,1,1,143.5000044927001,130.50000373274088"></path><path id="kity_path_226" fill="none" stroke="gray"></path></g><path id="node_outline25" fill="#fabf8f" stroke="none" d="M90.50000379234552,121.50000373274088h36a5,5,0,0,1,5,5v8a5,5,0,0,1,-5,5h-36a5,5,0,0,1,-5,-5v-8a5,5,0,0,1,5,-5z" stroke-width="3"></path><g id="node_text25" fill="black"><text id="kity_text_222" text-rendering="inherit" font-size="12" dy=".8em" y="122.70000370591879" x="90.50000379234552">背灯祭</text></g></g><g id="minder_node26"><g id="node_expander25" style="cursor: pointer;" display="none"><path id="kity_path_233" fill="white" stroke="gray" d="M143.5000044927001,156.50000412017107A6,6,0,1,1,131.5000044927001,156.50000412017107A6,6,0,1,1,143.5000044927001,156.50000412017107"></path><path id="kity_path_234" fill="none" stroke="gray"></path></g><path id="node_outline26" fill="#92d050" stroke="none" d="M30.500002898275852,147.50000412017107h96a5,5,0,0,1,5,5v8a5,5,0,0,1,-5,5h-96a5,5,0,0,1,-5,-5v-8a5,5,0,0,1,5,-5z" stroke-width="3"></path><g id="node_text26" fill="black"><text id="kity_text_230" text-rendering="inherit" font-size="12" dy=".8em" y="148.70000409334898" x="30.500002898275852">萨其马、满汉全席</text></g></g><g id="minder_node27"><g id="node_expander26" style="cursor: pointer;" display="none"><path id="kity_path_241" fill="white" stroke="gray" d="M129.50000428408384,190.50000462681055A6,6,0,1,1,117.50000428408384,190.50000462681055A6,6,0,1,1,129.50000428408384,190.50000462681055"></path><path id="kity_path_242" fill="none" stroke="gray"></path></g><path id="node_outline27" fill="#fabf8f" stroke="none" d="M75.5000035688281,181.50000462681055h37a5,5,0,0,1,5,5v8a5,5,0,0,1,-5,5h-37a5,5,0,0,1,-5,-5v-8a5,5,0,0,1,5,-5z" stroke-width="3"></path><g id="node_text27" fill="black"><text id="kity_text_238" text-rendering="inherit" font-size="12" dy=".8em" y="182.70000459998846" x="75.5000035688281">老人节</text></g></g><g id="minder_node28"><g id="node_expander27" style="cursor: pointer;" display="none"><path id="kity_path_249" fill="white" stroke="gray" d="M129.50000428408384,216.50000501424074A6,6,0,1,1,117.50000428408384,216.50000501424074A6,6,0,1,1,129.50000428408384,216.50000501424074"></path><path id="kity_path_250" fill="none" stroke="gray"></path></g><path id="node_outline28" fill="#92d050" stroke="none" d="M51.50000321120024,207.50000501424074h61a5,5,0,0,1,5,5v8a5,5,0,0,1,-5,5h-61a5,5,0,0,1,-5,-5v-8a5,5,0,0,1,5,-5z" stroke-width="3"></path><g id="node_text28" fill="black"><text id="kity_text_246" text-rendering="inherit" font-size="12" dy=".8em" y="208.70000498741865" x="51.50000321120024">泡菜、打糕</text></g></g><g id="minder_node29"><g id="node_expander28" style="cursor: pointer;" display="none"><path id="kity_path_257" fill="white" stroke="gray" d="M129.50000428408384,242.50000540167093A6,6,0,1,1,117.50000428408384,242.50000540167093A6,6,0,1,1,129.50000428408384,242.50000540167093"></path><path id="kity_path_258" fill="none" stroke="gray"></path></g><path id="node_outline29" fill="#95b3d7" stroke="none" d="M52.5000032261014,233.50000540167093h60a5,5,0,0,1,5,5v8a5,5,0,0,1,-5,5h-60a5,5,0,0,1,-5,-5v-8a5,5,0,0,1,5,-5z" stroke-width="3"></path><g id="node_text29" fill="black"><text id="kity_text_254" text-rendering="inherit" font-size="12" dy=".8em" y="234.70000537484884" x="52.5000032261014">《阿里郎》</text></g></g><g id="minder_node30"><g id="node_expander29" style="cursor: pointer;" display="none"><path id="kity_path_265" fill="white" stroke="gray" d="M129.50000428408384,280.50000596791506A6,6,0,1,1,117.50000428408384,280.50000596791506A6,6,0,1,1,129.50000428408384,280.50000596791506"></path><path id="kity_path_266" fill="none" stroke="gray"></path></g><path id="node_outline30" fill="#fabf8f" stroke="none" d="M28.50000286847353,271.50000596791506h84a5,5,0,0,1,5,5v8a5,5,0,0,1,-5,5h-84a5,5,0,0,1,-5,-5v-8a5,5,0,0,1,5,-5z" stroke-width="3"></path><g id="node_text30" fill="black"><text id="kity_text_262" text-rendering="inherit" font-size="12" dy=".8em" y="272.70000594109297" x="28.50000286847353">背篓会、观月祭</text></g></g><g id="kity_g_12" display="none"><path id="kity_path_13" fill="none" stroke="rgb(66, 112, 68)" d="M88.50000611692667,121.5000044927001h37a5,5,0,0,1,5,5v8a5,5,0,0,1,-5,5h-37a5,5,0,0,1,-5,-5v-8a5,5,0,0,1,5,-5z" stroke-width="5"></path></g></g></g></svg>