<svg id="kity_svg_6" xmlns="http://www.w3.org/2000/svg" xmlns:xlink="http://www.w3.org/1999/xlink" version="1.1" width="295" height="238" style="background: rgb(251, 251, 251); visibility: visible;" viewBox="0 0 295 238"><defs id="kity_defs_7"><linearGradient id="kity_linearGradient_17" x1="0" y1="0" x2="0" y2="1"><stop id="kity_stop_18" offset="0" stop-color="rgb(255, 255, 255)"></stop><stop id="kity_stop_19" offset="1" stop-color="rgb(204, 204, 204)"></stop></linearGradient><marker id="kity_marker_2" orient="auto" refX="6" refY="0" viewBox="-7 -7 14 14" markerWidth="7" markerHeight="7" markerUnits="userSpaceOnUse"><path id="kity_path_3" fill="rgb(115, 191, 118)" stroke="none" d="M6,0A6,6,0,1,1,-6,0A6,6,0,1,1,6,0"></path></marker></defs><g id="kity_g_8"><g id="minder1" text-rendering="optimize-speed"><g id="minder_connect_group1"><path id="kity_path_31" fill="none" stroke="rgb(115, 191, 118)" stroke-width="1" d="M48.50000407546759,108.50000479072332A44,75,0,0,1,92.50000407546759,33.500004790723324"></path><path id="kity_path_47" fill="none" stroke="rgb(115, 191, 118)" stroke-width="1" d="M48.50000407546759,108.50000479072332A44,11,0,0,1,92.50000407546759,97.50000479072332"></path><path id="kity_path_55" fill="none" stroke="rgb(115, 191, 118)" stroke-width="1" d="M48.50000407546759,108.50000479072332A44,75,0,0,0,92.50000407546759,183.50000479072332"></path><path id="kity_path_63" fill="none" stroke="rgb(115, 191, 118)" stroke-width="1" d="M192.5000040754676,33.500004790723324C200.5000040754676,33.500004790723324,200.5000040754676,33.500004790723324,208.5000040754676,33.500004790723324"></path><path id="kity_path_79" fill="none" stroke="rgb(115, 191, 118)" stroke-width="1" d="M192.5000040754676,97.50000479072332C200.5000040754676,97.50000479072332,200.5000040754676,97.50000479072332,208.5000040754676,97.50000479072332"></path><path id="kity_path_87" fill="none" stroke="rgb(115, 191, 118)" stroke-width="1" d="M192.5000040754676,97.50000479072332C200.5000040754676,97.50000479072332,200.5000040754676,123.50000479072332,208.5000040754676,123.50000479072332"></path><path id="kity_path_95" fill="none" stroke="rgb(115, 191, 118)" stroke-width="1" d="M191.5000040754676,183.50000479072332C199.5000040754676,183.50000479072332,199.5000040754676,157.50000479072332,207.5000040754676,157.50000479072332"></path><path id="kity_path_103" fill="none" stroke="rgb(115, 191, 118)" stroke-width="1" d="M191.5000040754676,183.50000479072332C199.5000040754676,183.50000479072332,199.5000040754676,183.50000479072332,207.5000040754676,183.50000479072332"></path><path id="kity_path_111" fill="none" stroke="rgb(115, 191, 118)" stroke-width="1" d="M191.5000040754676,183.50000479072332C199.5000040754676,183.50000479072332,199.5000040754676,209.50000479072332,207.5000040754676,209.50000479072332"></path><path id="kity_path_140" fill="none" stroke="rgb(115, 191, 118)" stroke-width="1" d="M192.5000040754676,97.50000479072332C200.5000040754676,97.50000479072332,200.5000040754676,71.50000479072332,208.5000040754676,71.50000479072332"></path></g><g id="minder_node1"><path id="kity_path_131" fill="rgba(0, 0, 0, .25)" stroke="none" d="M31.500004075467587,96.50000479072332h58a5,5,0,0,1,5,5v24a5,5,0,0,1,-5,5h-58a5,5,0,0,1,-5,-5v-24a5,5,0,0,1,5,-5z" display="none"></path><path id="node_outline1" fill="rgb(115, 191, 118)" stroke="rgb(115, 191, 118)" d="M25.500004075467587,94.50000479072332h46a5,5,0,0,1,5,5v18a5,5,0,0,1,-5,5h-46a5,5,0,0,1,-5,-5v-18a5,5,0,0,1,5,-5z" stroke-width="3"></path><g id="node_text1" fill="white"><text id="kity_text_22" text-rendering="inherit" font-size="16" dy=".8em" y="98.10000475496054" x="32.50000407546759">曲直</text></g></g><g id="kity_g_14" display="none"><path id="kity_path_15" fill="rgba(0, 153, 5, 0.5)" stroke="none" d="M208.5000040754676,53.500004790723324h47v4h-47z"></path><path id="kity_path_16" fill="none" stroke="rgb(0, 128, 4)" d="M208.5000040754676,57.500004790723324L255.5000040754676,57.500004790723324" stroke-width="1"></path></g><g id="minder_node2"><path id="kity_path_128" fill="rgba(0, 0, 0, .25)" stroke="none" d="M113.5000052973628,26.500003673136234h76a5,5,0,0,1,5,5v14a5,5,0,0,1,-5,5h-76a5,5,0,0,1,-5,-5v-14a5,5,0,0,1,5,-5z" display="none"></path><g id="node_expander1" style="cursor: pointer;"><path id="kity_path_36" fill="white" stroke="gray" d="M93.50000489503145,33.500003673136234A6,6,0,1,1,81.50000489503145,33.500003673136234A6,6,0,1,1,93.50000489503145,33.500003673136234"></path><path id="kity_path_37" fill="none" stroke="gray" d="M83.00000489503145,33.500003673136234L92.00000489503145,33.500003673136234"></path></g><path id="node_outline2" fill="rgb(238, 246, 238)" stroke="rgb(115, 191, 118)" d="M97.5000052973628,20.500003673136234h92a3,3,0,0,1,3,3v20a3,3,0,0,1,-3,3h-92a3,3,0,0,1,-3,-3v-20a3,3,0,0,1,3,-3z" stroke-width="1"></path><g id="node_text2" fill="black"><text id="kity_text_33" text-rendering="inherit" font-size="14" dy=".8em" y="24.400003641843796" x="114.5000052973628">属性规律</text></g></g><g id="minder_node4"><path id="kity_path_129" fill="rgba(0, 0, 0, .25)" stroke="none" d="M113.5000052973628,90.50000462681055h76a5,5,0,0,1,5,5v14a5,5,0,0,1,-5,5h-76a5,5,0,0,1,-5,-5v-14a5,5,0,0,1,5,-5z" display="none"></path><g id="node_expander3" style="cursor: pointer;"><path id="kity_path_52" fill="white" stroke="gray" d="M93.50000489503145,97.50000462681055A6,6,0,1,1,81.50000489503145,97.50000462681055A6,6,0,1,1,93.50000489503145,97.50000462681055"></path><path id="kity_path_53" fill="none" stroke="gray" d="M83.00000489503145,97.50000462681055L92.00000489503145,97.50000462681055"></path></g><path id="node_outline4" fill="rgb(238, 246, 238)" stroke="rgb(115, 191, 118)" d="M97.5000052973628,84.50000462681055h92a3,3,0,0,1,3,3v20a3,3,0,0,1,-3,3h-92a3,3,0,0,1,-3,-3v-20a3,3,0,0,1,3,-3z" stroke-width="1"></path><g id="node_text4" fill="black"><text id="kity_text_49" text-rendering="inherit" font-size="14" dy=".8em" y="88.40000459551811" x="114.5000052973628">数量规律</text></g></g><g id="minder_node5"><path id="kity_path_130" fill="rgba(0, 0, 0, .25)" stroke="none" d="M113.5000052973628,176.5000059083104h74a5,5,0,0,1,5,5v14a5,5,0,0,1,-5,5h-74a5,5,0,0,1,-5,-5v-14a5,5,0,0,1,5,-5z" display="none"></path><g id="node_expander4" style="cursor: pointer;"><path id="kity_path_60" fill="white" stroke="gray" d="M93.50000489503145,183.5000059083104A6,6,0,1,1,81.50000489503145,183.5000059083104A6,6,0,1,1,93.50000489503145,183.5000059083104"></path><path id="kity_path_61" fill="none" stroke="gray" d="M83.00000489503145,183.5000059083104L92.00000489503145,183.5000059083104"></path></g><path id="node_outline5" fill="rgb(238, 246, 238)" stroke="rgb(115, 191, 118)" d="M97.5000052973628,170.5000059083104h91a3,3,0,0,1,3,3v20a3,3,0,0,1,-3,3h-91a3,3,0,0,1,-3,-3v-20a3,3,0,0,1,3,-3z" stroke-width="1"></path><g id="node_text5" fill="black"><text id="kity_text_57" text-rendering="inherit" font-size="14" dy=".8em" y="174.40000587701797" x="114.5000052973628">复合考点</text></g></g><g id="minder_node6"><path id="kity_path_132" fill="rgba(0, 0, 0, .25)" stroke="none" d="M237.50000677257776,11.000003673136234h0a28,28,0,0,1,28,28v0a28,28,0,0,1,-28,28h0a28,28,0,0,1,-28,-28v0a28,28,0,0,1,28,-28z" display="none"></path><g id="node_expander5" style="cursor: pointer;" display="none"><path id="kity_path_68" fill="white" stroke="gray" d="M208.500006608665,33.500003673136234A6,6,0,1,1,196.500006608665,33.500003673136234A6,6,0,1,1,208.500006608665,33.500003673136234"></path><path id="kity_path_69" fill="none" stroke="gray"></path></g><path id="node_outline6" fill="none" stroke="none" d="M213.50000677257776,24.500003673136234h37a5,5,0,0,1,5,5v8a5,5,0,0,1,-5,5h-37a5,5,0,0,1,-5,-5v-8a5,5,0,0,1,5,-5z" stroke-width="3"></path><g id="node_text6" fill="black"><text id="kity_text_65" text-rendering="inherit" font-size="12" dy=".8em" y="25.700003646314144" x="213.50000677257776">曲直性</text></g></g><g id="minder_node8"><path id="kity_path_134" fill="rgba(0, 0, 0, .25)" stroke="none" d="M237.50000677257776,75.00000462681055h0a28,28,0,0,1,28,28v0a28,28,0,0,1,-28,28h0a28,28,0,0,1,-28,-28v0a28,28,0,0,1,28,-28z" display="none"></path><g id="node_expander7" style="cursor: pointer;" display="none"><path id="kity_path_84" fill="white" stroke="gray" d="M208.500006608665,97.50000462681055A6,6,0,1,1,196.500006608665,97.50000462681055A6,6,0,1,1,208.500006608665,97.50000462681055"></path><path id="kity_path_85" fill="none" stroke="gray" d="M198.000006608665,97.50000462681055L207.000006608665,97.50000462681055"></path></g><path id="node_outline8" fill="none" stroke="none" d="M213.50000677257776,88.50000462681055h37a5,5,0,0,1,5,5v8a5,5,0,0,1,-5,5h-37a5,5,0,0,1,-5,-5v-8a5,5,0,0,1,5,-5z" stroke-width="3"></path><g id="node_text8" fill="black"><text id="kity_text_81" text-rendering="inherit" font-size="12" dy=".8em" y="89.70000459998846" x="213.50000677257776">曲线数</text></g></g><g id="minder_node9"><path id="kity_path_135" fill="rgba(0, 0, 0, .25)" stroke="none" d="M243.50000677257776,96.00000501424074h0a33,33,0,0,1,33,33v0a33,33,0,0,1,-33,33h0a33,33,0,0,1,-33,-33v0a33,33,0,0,1,33,-33z" display="none"></path><g id="node_expander8" style="cursor: pointer;" display="none"><path id="kity_path_92" fill="white" stroke="gray" d="M208.500006608665,123.50000501424074A6,6,0,1,1,196.500006608665,123.50000501424074A6,6,0,1,1,208.500006608665,123.50000501424074"></path><path id="kity_path_93" fill="none" stroke="gray"></path></g><path id="node_outline9" fill="none" stroke="none" d="M213.50000677257776,114.50000501424074h48a5,5,0,0,1,5,5v8a5,5,0,0,1,-5,5h-48a5,5,0,0,1,-5,-5v-8a5,5,0,0,1,5,-5z" stroke-width="3"></path><g id="node_text9" fill="black"><text id="kity_text_89" text-rendering="inherit" font-size="12" dy=".8em" y="115.70000498741865" x="213.50000677257776">曲直交点</text></g></g><g id="minder_node10"><path id="kity_path_136" fill="rgba(0, 0, 0, .25)" stroke="none" d="M241.0000067576766,131.00000552088022h0a32,32,0,0,1,32,32v0a32,32,0,0,1,-32,32h0a32,32,0,0,1,-32,-32v0a32,32,0,0,1,32,-32z" display="none"></path><g id="node_expander9" style="cursor: pointer;" display="none"><path id="kity_path_100" fill="white" stroke="gray" d="M207.50000659376383,157.50000552088022A6,6,0,1,1,195.50000659376383,157.50000552088022A6,6,0,1,1,207.50000659376383,157.50000552088022"></path><path id="kity_path_101" fill="none" stroke="gray"></path></g><path id="node_outline10" fill="none" stroke="none" d="M212.5000067576766,148.50000552088022h46a5,5,0,0,1,5,5v8a5,5,0,0,1,-5,5h-46a5,5,0,0,1,-5,-5v-8a5,5,0,0,1,5,-5z" stroke-width="3"></path><g id="node_text10" fill="black"><text id="kity_text_97" text-rendering="inherit" font-size="12" dy=".8em" y="149.70000549405813" x="212.5000067576766">+面数量</text></g></g><g id="minder_node11"><path id="kity_path_137" fill="rgba(0, 0, 0, .25)" stroke="none" d="M241.0000067576766,157.0000059083104h0a32,32,0,0,1,32,32v0a32,32,0,0,1,-32,32h0a32,32,0,0,1,-32,-32v0a32,32,0,0,1,32,-32z" display="none"></path><g id="node_expander10" style="cursor: pointer;" display="none"><path id="kity_path_108" fill="white" stroke="gray" d="M207.50000659376383,183.5000059083104A6,6,0,1,1,195.50000659376383,183.5000059083104A6,6,0,1,1,207.50000659376383,183.5000059083104"></path><path id="kity_path_109" fill="none" stroke="gray"></path></g><path id="node_outline11" fill="none" stroke="none" d="M212.5000067576766,174.5000059083104h46a5,5,0,0,1,5,5v8a5,5,0,0,1,-5,5h-46a5,5,0,0,1,-5,-5v-8a5,5,0,0,1,5,-5z" stroke-width="3"></path><g id="node_text11" fill="black"><text id="kity_text_105" text-rendering="inherit" font-size="12" dy=".8em" y="175.70000588148832" x="212.5000067576766">+笔画数</text></g></g><g id="minder_node12"><path id="kity_path_138" fill="rgba(0, 0, 0, .25)" stroke="none" d="M247.5000067576766,177.0000062957406h0a38,38,0,0,1,38,38v0a38,38,0,0,1,-38,38h0a38,38,0,0,1,-38,-38v0a38,38,0,0,1,38,-38z" display="none"></path><g id="node_expander11" style="cursor: pointer;" display="none"><path id="kity_path_116" fill="white" stroke="gray" d="M207.50000659376383,209.5000062957406A6,6,0,1,1,195.50000659376383,209.5000062957406A6,6,0,1,1,207.50000659376383,209.5000062957406"></path><path id="kity_path_117" fill="none" stroke="gray"></path></g><path id="node_outline12" fill="none" stroke="none" d="M212.5000067576766,200.5000062957406h58a5,5,0,0,1,5,5v8a5,5,0,0,1,-5,5h-58a5,5,0,0,1,-5,-5v-8a5,5,0,0,1,5,-5z" stroke-width="3"></path><g id="node_text12" fill="black"><text id="kity_text_113" text-rendering="inherit" font-size="12" dy=".8em" y="201.70000626891851" x="212.5000067576766">+位置规律</text></g></g><g id="minder_node14" opacity="1"><g id="node_expander13" style="cursor: pointer;" display="none"><path id="kity_path_145" fill="white" stroke="gray" d="M208.500006608665,71.50000423938036A6,6,0,1,1,196.500006608665,71.50000423938036A6,6,0,1,1,208.500006608665,71.50000423938036"></path><path id="kity_path_146" fill="none" stroke="gray"></path></g><path id="node_outline14" fill="none" stroke="none" d="M213.50000677257776,62.50000423938036h38a5,5,0,0,1,5,5v8a5,5,0,0,1,-5,5h-38a5,5,0,0,1,-5,-5v-8a5,5,0,0,1,5,-5z" stroke-width="3"></path><g id="node_text14" fill="black"><text id="kity_text_142" text-rendering="inherit" font-size="12" dy=".8em" y="63.70000421255827" x="213.50000677257776">直线数</text></g></g><g id="kity_g_12" display="none"><path id="kity_path_13" fill="none" stroke="rgb(66, 112, 68)" d="M213.5000040754676,62.500004790723324h37a5,5,0,0,1,5,5v8a5,5,0,0,1,-5,5h-37a5,5,0,0,1,-5,-5v-8a5,5,0,0,1,5,-5z" stroke-width="5"></path></g></g></g></svg>